<?xml version="1.0" standalone="no"?>
<!DOCTYPE svg PUBLIC "-//W3C//DTD SVG 20010904//EN"
 "http://www.w3.org/TR/2001/REC-SVG-20010904/DTD/svg10.dtd">
<svg version="1.0" xmlns="http://www.w3.org/2000/svg"
 width="30.000000pt" height="30.000000pt" viewBox="0 0 30.000000 30.000000"
 preserveAspectRatio="xMidYMid meet">

<g transform="translate(0.000000,30.000000) scale(0.100000,-0.100000)"
fill="#000000" stroke="none">
<path d="M110 150 c0 -85 3 -111 13 -108 17 6 17 210 0 216 -10 3 -13 -23 -13
-108z"/>
<path d="M67 224 c-4 -4 -7 -41 -7 -81 0 -55 3 -74 13 -71 7 3 13 29 15 73 3
64 -5 94 -21 79z"/>
<path d="M210 150 c0 -47 4 -80 10 -80 6 0 10 33 10 80 0 47 -4 80 -10 80 -6
0 -10 -33 -10 -80z"/>
<path d="M160 145 c0 -25 5 -45 10 -45 6 0 10 20 10 45 0 25 -4 45 -10 45 -5
0 -10 -20 -10 -45z"/>
<path d="M252 143 c2 -27 8 -48 13 -48 6 0 11 21 13 48 3 38 0 47 -13 47 -13
0 -16 -9 -13 -47z"/>
<path d="M16 173 c-12 -13 -6 -53 9 -53 9 0 15 9 15 24 0 26 -12 40 -24 29z"/>
</g>
</svg>
