<?xml version="1.0" standalone="no"?>
<!DOCTYPE svg PUBLIC "-//W3C//DTD SVG 20010904//EN"
 "http://www.w3.org/TR/2001/REC-SVG-20010904/DTD/svg10.dtd">
<svg version="1.0" xmlns="http://www.w3.org/2000/svg"
 width="30.000000pt" height="30.000000pt" viewBox="0 0 30.000000 30.000000"
 preserveAspectRatio="xMidYMid meet">

<g transform="translate(0.000000,30.000000) scale(0.100000,-0.100000)"
fill="#000000" stroke="none">
<path d="M130 262 c0 -10 -12 -22 -29 -28 -16 -7 -34 -24 -42 -43 -8 -18 -21
-31 -31 -31 -23 0 -23 -21 0 -26 9 -3 25 -18 34 -35 9 -16 28 -34 42 -40 13
-6 27 -20 29 -31 6 -20 27 -16 27 5 1 7 15 21 33 32 18 11 36 30 42 42 5 12
17 24 27 26 23 7 23 27 0 27 -10 0 -22 12 -29 31 -8 19 -23 34 -42 42 -19 7
-31 19 -31 29 0 10 -7 18 -15 18 -8 0 -15 -8 -15 -18z m65 -67 c30 -30 31 -54
4 -89 -15 -19 -30 -26 -53 -26 -64 0 -92 74 -46 120 27 27 66 25 95 -5z"/>
<path d="M106 184 c-34 -33 -5 -94 45 -94 38 0 65 70 37 98 -17 17 -64 15 -82
-4z m63 -23 c13 -23 -10 -47 -34 -37 -18 7 -20 42 -2 49 21 9 26 7 36 -12z"/>
</g>
</svg>
