<?xml version="1.0" standalone="no"?>
<!DOCTYPE svg PUBLIC "-//W3C//DTD SVG 20010904//EN"
 "http://www.w3.org/TR/2001/REC-SVG-20010904/DTD/svg10.dtd">
<svg version="1.0" xmlns="http://www.w3.org/2000/svg"
 width="30.000000pt" height="30.000000pt" viewBox="0 0 30.000000 30.000000"
 preserveAspectRatio="xMidYMid meet">

<g transform="translate(0.000000,30.000000) scale(0.100000,-0.100000)"
fill="#000000" stroke="none">
<path d="M247 253 c-4 -3 -7 -24 -7 -47 l0 -40 -35 34 c-38 37 -62 34 -27 -3
12 -13 22 -26 22 -30 0 -4 -41 -7 -91 -7 -57 0 -88 -4 -84 -10 3 -5 45 -10 92
-10 l86 0 -23 -25 c-36 -38 -14 -43 25 -5 l34 33 3 -43 c2 -24 9 -45 16 -48 9
-3 12 22 12 102 0 97 -5 118 -23 99z"/>
</g>
</svg>
