<?xml version="1.0" standalone="no"?>
<!DOCTYPE svg PUBLIC "-//W3C//DTD SVG 20010904//EN"
 "http://www.w3.org/TR/2001/REC-SVG-20010904/DTD/svg10.dtd">
<svg version="1.0" xmlns="http://www.w3.org/2000/svg"
 width="55.000000pt" height="55.000000pt" viewBox="0 0 55.000000 55.000000"
 preserveAspectRatio="xMidYMid meet">
<metadata>
Created by potrace 1.16, written by Peter Selinger 2001-2019
</metadata>
<g transform="translate(0.000000,55.000000) scale(0.100000,-0.100000)"
fill="#000000" stroke="none">
<path d="M342 427 c-33 -34 -42 -67 -19 -67 7 0 18 5 25 12 9 9 12 -3 12 -57
0 -54 -3 -66 -12 -57 -18 18 -38 15 -38 -6 0 -19 59 -82 76 -82 5 0 28 18 49
40 31 32 36 43 27 52 -10 10 -17 10 -32 0 -19 -12 -20 -9 -20 53 0 62 1 65 20
53 15 -10 22 -10 32 0 9 9 4 20 -27 52 -21 22 -44 40 -50 40 -6 0 -25 -15 -43
-33z"/>
<path d="M100 323 c-25 -64 -46 -120 -48 -125 -2 -4 8 -8 22 -8 19 0 29 7 36
25 9 22 15 25 65 25 50 0 55 -2 61 -25 5 -19 13 -25 35 -25 l28 0 -26 68 c-14
37 -35 93 -46 125 -19 53 -23 57 -52 57 -30 0 -32 -3 -75 -117z"/>
</g>
</svg>
