<?xml version="1.0" standalone="no"?>
<!DOCTYPE svg PUBLIC "-//W3C//DTD SVG 20010904//EN"
 "http://www.w3.org/TR/2001/REC-SVG-20010904/DTD/svg10.dtd">
<svg version="1.0" xmlns="http://www.w3.org/2000/svg"
 width="55.000000pt" height="55.000000pt" viewBox="0 0 55.000000 55.000000"
 preserveAspectRatio="xMidYMid meet">
<metadata>
Created by potrace 1.16, written by Peter Selinger 2001-2019
</metadata>
<g transform="translate(0.000000,55.000000) scale(0.100000,-0.100000)"
fill="#000000" stroke="none">
<path d="M155 270 l-38 -39 42 -42 c32 -33 45 -39 54 -30 9 9 9 16 -1 31 -12
19 -9 20 53 20 62 0 65 -1 53 -20 -10 -15 -10 -22 0 -32 9 -9 20 -4 52 27 22
21 40 44 40 50 0 17 -64 75 -83 75 -22 0 -22 -18 0 -42 15 -17 13 -18 -56 -18
l-71 0 15 23 c15 24 12 37 -10 37 -6 0 -28 -18 -50 -40z"/>
</g>
</svg>
