<?xml version="1.0" standalone="no"?>
<!DOCTYPE svg PUBLIC "-//W3C//DTD SVG 20010904//EN"
 "http://www.w3.org/TR/2001/REC-SVG-20010904/DTD/svg10.dtd">
<svg version="1.0" xmlns="http://www.w3.org/2000/svg"
 width="55.000000pt" height="55.000000pt" viewBox="0 0 55.000000 55.000000"
 preserveAspectRatio="xMidYMid meet">
<metadata>
Created by potrace 1.16, written by Peter Selinger 2001-2019
</metadata>
<g transform="translate(0.000000,55.000000) scale(0.100000,-0.100000)"
fill="#000000" stroke="none">
<path d="M285 426 c-35 -16 -70 -52 -79 -83 -7 -21 -4 -22 51 -25 44 -2 58 -7
58 -18 0 -11 -14 -16 -57 -18 -43 -2 -58 -7 -58 -17 0 -10 -11 -15 -33 -15
-38 0 -57 15 -57 45 0 29 19 45 52 45 17 0 31 7 35 16 15 39 -63 41 -104 2
-32 -30 -32 -90 2 -123 30 -31 105 -36 105 -7 0 12 6 8 20 -13 62 -94 204 -84
250 18 24 53 24 71 1 124 -32 69 -115 100 -186 69z"/>
</g>
</svg>
