<?xml version="1.0" standalone="no"?>
<!DOCTYPE svg PUBLIC "-//W3C//DTD SVG 20010904//EN"
 "http://www.w3.org/TR/2001/REC-SVG-20010904/DTD/svg10.dtd">
<svg version="1.0" xmlns="http://www.w3.org/2000/svg"
 width="55.000000pt" height="55.000000pt" viewBox="0 0 55.000000 55.000000"
 preserveAspectRatio="xMidYMid meet">
<metadata>
Created by potrace 1.16, written by Peter Selinger 2001-2019
</metadata>
<g transform="translate(0.000000,55.000000) scale(0.100000,-0.100000)"
fill="#000000" stroke="none">
<path d="M165 466 c-121 -54 -127 -237 -10 -303 49 -28 108 -29 155 -5 l35 18
61 -58 c53 -51 62 -57 73 -44 11 13 4 25 -44 75 l-56 59 16 33 c25 47 16 127
-18 172 -47 62 -140 85 -212 53z m136 -41 c37 -20 69 -70 69 -110 0 -66 -66
-135 -128 -135 -38 0 -93 31 -113 64 -67 110 57 240 172 181z"/>
</g>
</svg>
