<?xml version="1.0" standalone="no"?>
<!DOCTYPE svg PUBLIC "-//W3C//DTD SVG 20010904//EN"
 "http://www.w3.org/TR/2001/REC-SVG-20010904/DTD/svg10.dtd">
<svg version="1.0" xmlns="http://www.w3.org/2000/svg"
 width="1200.000000pt" height="1200.000000pt" viewBox="0 0 1200.000000 1200.000000"
 preserveAspectRatio="xMidYMid meet">
<metadata>
Created by potrace 1.14, written by Peter Selinger 2001-2017
</metadata>
<g transform="translate(0.000000,1200.000000) scale(0.100000,-0.100000)"
fill="#000000" stroke="none">
<path d="M1657 10673 c-2 -5 -111 -330 -242 -723 l-237 -714 52 -246 c28 -135
54 -256 56 -270 2 -14 11 -54 19 -90 8 -36 17 -81 20 -100 4 -19 8 -39 9 -45
2 -5 6 -28 11 -50 4 -22 9 -47 11 -55 10 -45 69 -325 95 -450 26 -125 33 -159
42 -214 1 -5 -18 -24 -43 -43 -25 -19 -72 -55 -104 -80 l-59 -45 29 -23 c88
-70 229 -178 245 -188 10 -6 19 -15 19 -18 0 -3 -47 -43 -105 -88 -58 -45
-105 -87 -105 -94 0 -6 17 -26 37 -45 21 -18 77 -70 126 -115 49 -45 96 -86
103 -90 8 -4 14 -12 14 -17 0 -6 -38 -38 -85 -72 -47 -34 -85 -66 -85 -71 0
-8 88 -116 116 -142 6 -5 33 -37 60 -70 27 -33 51 -62 54 -65 4 -4 140 -164
187 -221 12 -14 2 -54 -72 -280 -47 -145 -88 -272 -90 -281 -3 -16 -124 -392
-190 -593 -18 -55 -42 -131 -54 -170 -12 -38 -62 -194 -111 -345 -49 -151 -96
-300 -105 -330 l-17 -56 47 -159 c26 -88 62 -212 80 -275 40 -136 109 -371
200 -680 37 -124 70 -238 74 -255 5 -16 34 -118 66 -225 31 -107 77 -262 101
-344 24 -83 49 -153 56 -157 6 -4 21 -3 32 2 12 5 57 18 101 30 135 35 280 75
510 139 121 33 252 69 290 80 39 10 129 35 200 55 72 20 137 38 145 40 26 6
119 31 275 75 83 23 157 43 165 45 8 2 105 29 215 59 110 31 201 56 202 56 1
0 91 -73 200 -162 166 -136 371 -287 573 -423 25 -16 50 -34 55 -38 6 -5 104
-73 218 -153 l209 -144 727 0 727 0 195 135 c107 74 264 183 349 241 85 59
181 126 213 148 74 52 221 168 225 178 2 4 10 8 17 8 7 0 15 4 17 9 3 9 188
164 223 187 24 16 -6 23 440 -101 193 -53 397 -109 455 -125 58 -16 188 -52
290 -80 239 -66 460 -127 744 -205 l228 -63 14 34 c8 18 14 38 14 43 0 6 12
47 26 92 14 45 27 89 29 98 2 9 17 61 34 116 16 55 41 138 55 185 64 219 289
982 306 1040 10 36 42 144 70 240 28 96 57 192 65 214 13 36 12 44 -15 125
-15 47 -79 241 -140 431 -61 190 -120 370 -130 400 -10 30 -64 197 -120 370
-56 173 -119 367 -140 430 -57 172 -100 312 -100 322 0 8 60 80 245 293 29 33
71 83 95 110 23 28 53 62 66 77 13 15 21 34 18 41 -3 8 -41 38 -84 68 -44 30
-80 58 -80 62 0 4 11 18 24 30 157 145 209 191 230 208 15 11 26 27 26 34 0 8
-49 52 -110 99 l-110 84 78 58 c131 98 212 164 212 173 0 5 -44 42 -98 83
l-98 73 18 90 c10 50 20 103 23 119 3 16 8 32 10 35 2 4 6 27 10 51 3 25 10
61 15 80 7 29 49 230 66 319 3 14 27 130 54 258 27 128 52 247 55 265 3 18 10
49 15 68 5 19 12 49 14 65 8 43 14 74 27 130 l11 50 -241 720 c-133 395 -241
720 -241 722 0 10 -42 -2 -132 -36 -101 -39 -138 -53 -148 -56 -3 -1 -16 -6
-30 -12 -14 -6 -45 -17 -70 -26 -25 -8 -76 -27 -115 -42 -38 -15 -95 -36 -125
-47 -30 -11 -64 -24 -75 -29 -11 -5 -117 -44 -235 -88 -118 -43 -244 -90 -280
-104 -36 -14 -234 -89 -440 -165 -206 -77 -607 -227 -890 -333 l-515 -194
-1285 0 -1285 0 -80 31 c-44 18 -114 44 -155 59 -41 15 -84 31 -95 36 -11 5
-137 52 -280 104 -143 53 -269 100 -280 105 -28 13 -374 141 -406 150 -15 4
-42 15 -60 23 -19 8 -153 59 -299 112 -146 54 -278 104 -295 110 -16 7 -64 25
-105 40 -41 14 -85 31 -98 36 -13 5 -67 25 -120 45 -53 20 -133 49 -177 66
-44 17 -105 39 -135 50 -30 11 -64 24 -75 28 -11 4 -47 18 -80 30 -33 12 -73
28 -90 35 -16 7 -41 16 -55 20 -14 3 -34 10 -45 15 -85 38 -120 47 -128 33z"/>
</g>
</svg>
